HIERARCHY
ROOT Pelvis
{
	OFFSET 0.000000 0.000000 0.000000
	CHANNELS 6 Xposition Yposition Zposition Xrotation Yrotation Zrotation
	JOINT LeftUpLeg_virtual
	{
		OFFSET 0.000000 0.000000 0.000000
		CHANNELS 3 Xrotation Yrotation Zrotation
		JOINT LeftUpLeg
		{
			OFFSET 18.735201 -5.666702 -4.541200
			CHANNELS 3 Xrotation Yrotation Zrotation
			JOINT LeftLeg
			{
				OFFSET -0.021200 -31.938179 0.493100
				CHANNELS 3 Xrotation Yrotation Zrotation
				JOINT LeftFoot
				{
					OFFSET 0.021200 -31.938179 -4.336299
					CHANNELS 3 Xrotation Yrotation Zrotation
					JOINT LeftToeBase
					{
						OFFSET 0.943001 -26.722000 15.023500
						CHANNELS 3 Xrotation Yrotation Zrotation
						End Site
						{
							OFFSET 0 0 0
						}
					}
				}
			}
		}
	}
	JOINT RightUpLeg_virtual
	{
		OFFSET 0.000000 0.000000 0.000000
		CHANNELS 3 Xrotation Yrotation Zrotation
		JOINT RightUpLeg
		{
			OFFSET -18.735201 -5.666702 -4.541200
			CHANNELS 3 Xrotation Yrotation Zrotation
			JOINT RightLeg
			{
				OFFSET 0.018946 -31.938133 0.493100
				CHANNELS 3 Xrotation Yrotation Zrotation
				JOINT RightFoot
				{
					OFFSET -0.018946 -31.938126 -4.336299
					CHANNELS 3 Xrotation Yrotation Zrotation
					JOINT RightToeBase
					{
						OFFSET -0.943001 -26.722004 15.023500
						CHANNELS 3 Xrotation Yrotation Zrotation
						End Site
						{
							OFFSET 0 0 0
						}
					}
				}
			}
		}
	}
	JOINT Hips_virtual
	{
		OFFSET 0.000000 0.000000 0.000000
		CHANNELS 3 Xrotation Yrotation Zrotation
		JOINT Hips
		{
			OFFSET -0.000000 -0.000000 -0.000000
			CHANNELS 3 Xrotation Yrotation Zrotation
			JOINT Spine
			{
				OFFSET 0.000000 10.199997 -0.299500
				CHANNELS 3 Xrotation Yrotation Zrotation
				JOINT Spine1
				{
					OFFSET 0.000000 11.900002 -1.516600
					CHANNELS 3 Xrotation Yrotation Zrotation
					JOINT Spine2
					{
						OFFSET 0.000000 13.600006 -2.842500
						CHANNELS 3 Xrotation Yrotation Zrotation
						JOINT Neck_virtual
						{
							OFFSET 0.000000 0.000000 0.000000
							CHANNELS 3 Xrotation Yrotation Zrotation
							JOINT Neck
							{
								OFFSET 0.000000 9.624100 -2.890100
								CHANNELS 3 Xrotation Yrotation Zrotation
								JOINT Head
								{
									OFFSET 0.000000 14.068802 -1.351900
									CHANNELS 3 Xrotation Yrotation Zrotation
									End Site
									{
										OFFSET 0 0 0
									}
								}
							}
						}
						JOINT LeftShoulder_virtual
						{
							OFFSET 0.000000 0.000000 0.000000
							CHANNELS 3 Xrotation Yrotation Zrotation
							JOINT LeftShoulder
							{
								OFFSET 15.263000 10.923401 -0.547700
								CHANNELS 3 Xrotation Yrotation Zrotation
								JOINT LeftArm
								{
									OFFSET 25.438599 -2.830597 -13.032500
									CHANNELS 3 Xrotation Yrotation Zrotation
									JOINT LeftForeArm
									{
										OFFSET 29.960503 0.000000 0.000000
										CHANNELS 3 Xrotation Yrotation Zrotation
										JOINT LeftHand
										{
											OFFSET 27.849251 0.000000 0.000000
											CHANNELS 3 Xrotation Yrotation Zrotation
											End Site
											{
												OFFSET 0 0 0
											}
										}
									}
								}
							}
						}
						JOINT RightShoulder_virtual
						{
							OFFSET 0.000000 0.000000 0.000000
							CHANNELS 3 Xrotation Yrotation Zrotation
							JOINT RightShoulder
							{
								OFFSET -15.263000 10.923401 -0.547700
								CHANNELS 3 Xrotation Yrotation Zrotation
								JOINT RightArm
								{
									OFFSET -25.438599 -2.830597 -13.032500
									CHANNELS 3 Xrotation Yrotation Zrotation
									JOINT RightForeArm
									{
										OFFSET -29.960503 0.000000 0.000000
										CHANNELS 3 Xrotation Yrotation Zrotation
										JOINT RightHand
										{
											OFFSET -27.849251 0.000000 0.000000
											CHANNELS 3 Xrotation Yrotation Zrotation
											End Site
											{
												OFFSET 0 0 0
											}
										}
									}
								}
							}
						}
					}
				}
			}
		}
	}
}
MOTION
Frames: 4
Frame Time: 0.03333333
-5.848366 74.407616 12.384998 0.000000 0.000000 0.000000 10.917179 -49.254229 8.664064 -73.214314 13.302665 47.220595 59.472281 2.606857 -9.996000 -1.203395 -1.458925 -18.355234 0.000000 0.000000 0.000000 9.140449 -48.398615 7.149939 -51.758801 30.075778 -20.349492 62.166579 5.412407 2.474870 -13.036869 -11.310418 31.674589 0.000000 0.000000 0.000000 10.588546 -48.940416 8.041136 -0.846804 0.001138 -0.102713 6.277015 7.037199 -7.073483 17.012439 0.851439 0.453759 0.000000 0.000000 0.000000 11.657077 6.690992 -1.239224 -0.100855 -7.864227 -2.286758 0.000000 0.000000 0.000000 16.540338 4.210489 -0.593703 -8.412005 6.374115 -0.040168 -52.810329 -24.098461 -70.788299 0.756669 -24.589697 -7.036674 0.000000 0.000000 0.000000 9.961347 9.545551 -2.186698 -15.845953 16.653408 13.603980 -15.435399 -27.375260 71.762933 42.725685 55.156213 -33.844376 0.000000 0.000000 0.000000 
-5.795945 74.323807 12.006771 0.000000 0.000000 0.000000 10.422533 -49.537781 8.234805 -73.316200 12.556522 46.765134 59.541689 2.651044 -8.960849 -0.683042 -1.889157 -17.533282 0.000000 0.000000 0.000000 8.884958 -48.846296 6.869746 -53.404488 29.975969 -18.902844 63.232512 5.673341 2.612379 -12.088833 -10.982522 31.142736 0.000000 0.000000 0.000000 10.378960 -49.531654 7.885138 -0.836129 -0.013621 -0.151307 6.694280 7.210529 -7.080853 16.765097 0.830783 0.473574 0.000000 0.000000 0.000000 11.802895 6.644625 -1.241514 -0.038289 -7.786275 -2.319712 0.000000 0.000000 0.000000 16.813257 4.178343 -0.639223 -8.557561 7.074646 0.018718 -52.619429 -23.795416 -70.841930 0.991363 -24.397229 -6.795639 0.000000 0.000000 0.000000 10.346824 9.426562 -2.267607 -16.068993 15.790783 13.028471 -16.931083 -27.296182 69.510220 44.297766 57.804137 -34.465876 0.000000 0.000000 0.000000 
-5.742535 74.354759 11.147671 0.000000 0.000000 0.000000 9.764225 -50.862609 7.747917 -72.492513 10.995708 45.754375 59.589644 3.108872 -7.111575 -1.816746 -1.650413 -15.729724 0.000000 0.000000 0.000000 8.321278 -50.176673 6.487461 -56.263690 30.385408 -16.261359 63.354765 6.577640 3.004166 -8.163290 -9.445254 30.100869 0.000000 0.000000 0.000000 9.932136 -51.324043 7.750893 -0.805341 -0.067135 -0.198878 7.223390 7.363432 -7.382833 16.629093 0.657563 0.471500 0.000000 0.000000 0.000000 11.967534 6.436474 -1.340792 -0.014653 -7.676073 -2.314810 0.000000 0.000000 0.000000 17.062287 3.989166 -0.742190 -8.722317 7.772912 0.014297 -52.101144 -22.909213 -70.419045 1.435858 -24.159033 -6.358416 0.000000 0.000000 0.000000 10.657103 9.170277 -2.340494 -16.571736 14.527070 13.146759 -18.805092 -26.326116 65.264759 46.894443 62.102498 -35.523452 0.000000 0.000000 0.000000 
-5.774815 74.515396 9.956638 0.000000 0.000000 0.000000 9.128360 -53.827901 7.416235 -70.264881 9.086422 44.487334 59.163290 3.510736 -4.530985 -3.540003 -1.433505 -13.985958 0.000000 0.000000 0.000000 7.636404 -53.109970 6.212280 -60.652012 30.795247 -12.726105 62.978975 7.743082 3.711941 -1.940693 -7.228517 27.929429 0.000000 0.000000 0.000000 9.434665 -54.699618 7.754896 -0.776226 -0.139347 -0.206650 7.904512 7.401815 -7.879818 16.607718 0.317121 0.469340 0.000000 0.000000 0.000000 11.975894 6.046198 -1.474902 -0.014761 -7.531214 -2.247087 0.000000 0.000000 0.000000 17.276593 3.597573 -0.937907 -8.881410 8.433689 -0.089304 -51.164158 -21.346638 -69.563899 2.010508 -23.612410 -5.803283 0.000000 0.000000 0.000000 11.078867 8.783067 -2.383921 -17.255870 12.860677 13.539531 -20.477746 -24.101584 59.577213 50.650637 67.511871 -37.293451 0.000000 0.000000 0.000000 
